 <svg  version="1.0" xmlns="http://www.w3.org/2000/svg"  width="300.000000pt" height="300.000000pt" viewBox="0 0 300.000000 300.000000"  preserveAspectRatio="xMidYMid meet">  <g transform="translate(0.000000,300.000000) scale(0.100000,-0.100000)" fill="#ff0000" stroke="none"> <path d="M1390 2960 c-41 -17 -84 -35 -95 -40 -11 -5 -65 -28 -120 -50 -100 -42 -153 -64 -190 -80 -11 -5 -85 -37 -165 -70 -80 -34 -154 -65 -165 -70 -11 -5 -105 -46 -210 -90 -104 -45 -196 -88 -202 -97 -19 -24 -16 -77 5 -96 10 -9 53 -32 97 -52 44 -20 105 -48 135 -62 30 -14 109 -49 175 -78 66 -29 151 -67 188 -84 155 -71 616 -270 641 -277 18 -4 44 1 79 16 102 44 523 228 577 253 30 14 102 46 160 72 58 26 124 56 148 66 326 146 322 144 322 195 0 56 33 38 -465 250 -187 80 -349 149 -360 154 -11 5 -65 27 -120 50 -55 23 -109 45 -120 50 -90 41 -180 70 -215 70 -14 0 -59 -14 -100 -30z m-392 -429 c44 -23 82 -71 82 -106 0 -11 -9 -35 -20 -53 -63 -103 -315 -112 -401 -14 -63 72 -20 154 101 193 14 5 63 7 110 6 64 -3 96 -9 128 -26z m655 -4 c136 -80 68 -220 -115 -234 -90 -7 -147 3 -196 34 -47 31 -65 60 -65 105 0 25 9 40 42 69 53 48 95 59 203 55 72 -3 95 -8 131 -29z m634 5 c115 -60 110 -162 -11 -218 -72 -34 -190 -34 -262 0 -54 25 -94 70 -94 106 0 53 59 112 134 131 58 15 187 4 233 -19z"/> <path d="M120 2208 c-20 -22 -20 -31 -20 -804 0 -782 0 -783 21 -819 26 -43 88 -74 589 -298 464 -206 604 -266 639 -273 25 -5 36 -1 61 24 l30 30 0 784 c0 606 -3 789 -13 808 -12 25 -57 52 -177 104 -36 16 -92 42 -125 57 -81 37 -540 239 -755 333 -97 42 -188 76 -202 76 -15 0 -36 -10 -48 -22z m670 -827 c14 -10 35 -33 47 -51 65 -95 56 -268 -19 -347 -29 -31 -95 -31 -132 -2 -60 47 -95 171 -76 267 15 72 31 103 70 136 35 29 65 28 110 -3z"/> <path d="M2639 2162 c-80 -37 -168 -77 -195 -89 -246 -109 -348 -154 -399 -178 -33 -15 -114 -51 -180 -80 -251 -110 -273 -122 -291 -157 -15 -30 -16 -93 -12 -815 l5 -783 23 -25 c13 -14 34 -25 47 -25 20 0 408 164 640 271 37 17 129 58 203 91 294 130 376 174 399 213 21 36 21 37 21 821 0 771 0 784 -20 804 -34 34 -82 24 -241 -48z m-83 -381 c50 -30 69 -82 69 -186 0 -108 -21 -170 -71 -215 -38 -33 -70 -38 -113 -15 -50 25 -74 79 -79 177 -6 109 15 174 70 224 44 39 78 43 124 15z m-507 -856 c49 -25 76 -95 76 -195 0 -74 -4 -92 -30 -145 -78 -155 -215 -107 -241 84 -7 57 17 161 48 207 41 60 93 77 147 49z"/> </g> </svg> 